# xmcd
#
# Track frame offsets: 
#        150
#        26267
#        60956
#        84541
#        107966
#        119589
#        147530
#        170361
#
# Disc length: 3026 seconds
#
# Revision: 0
# Processed by: cddbd v1.5.2PL0 Copyright (c) Steve Scherf et al.
# Submitted via: ExactAudioCopy v0.95a3
#
DISCID=670bd008
DTITLE=Dirty Blues Band - im Konzert Live at The Stairway -REX
DYEAR=2009
DGENRE=Blues
TTITLE0=Mustang Sally
TTITLE1=Got You On My Mind
TTITLE2=Sweet Home Chicago
TTITLE3=Shake Your Moneymaker
TTITLE4=That's enough of That Stuff
TTITLE5=Walking Blues
TTITLE6=Crossroads
TTITLE7=Stevie's Blues
EXTD=
EXTT0=
EXTT1=
EXTT2=
EXTT3=
EXTT4=
EXTT5=
EXTT6=
EXTT7=
PLAYORDER=
